HIERARCHY
ROOT Hips
{
  OFFSET 0.000000 0.000000 0.000000
  CHANNELS 6 Xposition Yposition Zposition Zrotation Xrotation Yrotation
  JOINT Spine1
  {
    OFFSET 0.000000 0.000000 0.000000
    CHANNELS 3 Zrotation Xrotation Yrotation
    JOINT Spine2
    {
      OFFSET -0.000000 4.400000 -0.396350
      CHANNELS 3 Zrotation Xrotation Yrotation
      JOINT Chest
      {
        OFFSET 0.000000 0.000000 0.000000
        CHANNELS 3 Zrotation Xrotation Yrotation
        JOINT LeftShoulder
        {
          OFFSET 10.022000 24.778000 0.395630
          CHANNELS 3 Zrotation Xrotation Yrotation
          JOINT LeftArm
          {
            OFFSET 4.424000 -11.703100 -0.000000
            CHANNELS 3 Zrotation Xrotation Yrotation
            JOINT LeftForeArm
            {
              OFFSET 0.000000 -8.051800 1.578300
              CHANNELS 3 Zrotation Xrotation Yrotation
              JOINT LeftHand
              {
                OFFSET 0.188791 -1.000000 18.400000
                CHANNELS 3 Zrotation Xrotation Yrotation
                End Site
                {
                  OFFSET 0 0 1
                }
              }
            }
          }
        }
        JOINT RightShoulder
        {
          OFFSET -10.021000 24.778000 0.395630
          CHANNELS 3 Zrotation Xrotation Yrotation
          JOINT RightArm
          {
            OFFSET -4.424000 -11.703100 -0.000000
            CHANNELS 3 Zrotation Xrotation Yrotation
            JOINT RightForeArm
            {
              OFFSET 0.000000 -8.051800 1.578300
              CHANNELS 3 Zrotation Xrotation Yrotation
              JOINT RightHand
              {
                OFFSET -0.188791 -1.000000 18.400000
                CHANNELS 3 Zrotation Xrotation Yrotation
                End Site
                {
                  OFFSET 0 0 1
                }
              }
            }
          }
        }
      }
    }
  }
  JOINT LeftLeg
  {
    OFFSET 11.645200 -25.728500 2.500100
    CHANNELS 3 Zrotation Xrotation Yrotation
    JOINT LeftShin
    {
      OFFSET 0.214890 -17.734000 -7.827300
      CHANNELS 3 Zrotation Xrotation Yrotation
      JOINT LeftFoot
      {
        OFFSET -0.009445 -31.756800 -0.000000
        CHANNELS 3 Zrotation Xrotation Yrotation
        JOINT LeftToeBase
        {
          OFFSET 0.000000 -3.500000 14.000000
          CHANNELS 3 Zrotation Xrotation Yrotation
          End Site
          {
            OFFSET 0 0 1
          }
        }
      }
    }
  }
  JOINT RightLeg
  {
    OFFSET -11.645200 -25.728500 2.500100
    CHANNELS 3 Zrotation Xrotation Yrotation
    JOINT RightShin
    {
      OFFSET -0.214890 -17.734000 -7.827300
      CHANNELS 3 Zrotation Xrotation Yrotation
      JOINT RightFoot
      {
        OFFSET 0.009444 -31.756800 -0.000000
        CHANNELS 3 Zrotation Xrotation Yrotation
        JOINT RightToeBase
        {
          OFFSET 0.000000 -3.500000 14.000000
          CHANNELS 3 Zrotation Xrotation Yrotation
          End Site
          {
            OFFSET 0 0 1
          }
        }
      }
    }
  }
}
MOTION
Frames: 8
Frame Time: 0.033333333
6.035264 71.521095 151.115112 -1.881919 -3.025727 -4.501879 0.000000 -0.000000 10.934108 -3.385607 0.000000 -0.000000 0.000000 20.703891 -0.000000 16.006040 13.823458 -0.011761 11.295031 -0.000001 -23.667983 0.000001 58.128903 -0.000001 20.201593 -3.167606 9.027779 -15.995366 -34.551810 0.013866 -7.448786 -0.000000 29.884457 0.000001 33.064944 -0.000001 -23.274914 14.333419 -25.580763 3.204224 -45.235933 10.135627 -0.000001 24.176120 0.000000 3.354486 -8.461979 0.494175 3.795040 32.236977 -6.234504 5.648771 -0.394879 -9.245018 -0.000000 50.602197 0.000000 -11.208855 -36.087945 -6.657721 4.429836 -11.076511 12.554312
6.524761 70.942093 154.898575 -0.740879 -1.953420 -4.905728 -0.000000 0.000000 11.607738 -4.992490 0.000000 -0.000000 -0.000000 19.695149 0.000000 16.006240 14.765638 -0.011810 11.062208 0.000001 -24.427099 -0.000003 58.184253 0.000002 19.868520 -2.616919 9.229430 -15.995248 -34.956592 0.013935 -6.791021 -0.000000 29.615421 0.000000 32.388940 0.000000 -24.373398 13.024385 -24.100579 1.889230 -47.675145 10.061110 -0.000000 31.208455 0.000000 5.940176 -5.018211 0.521457 0.984279 23.083725 -4.410288 3.444528 1.071297 -8.948455 0.000000 52.429321 -0.000001 -9.088355 -37.014309 -5.500713 4.164101 -14.563971 12.966091
6.975778 70.725388 158.592484 0.302021 -1.626254 -4.726048 0.000000 0.000000 11.323987 -6.239165 0.000000 -0.000000 -0.000000 19.660361 0.000000 16.006226 14.699062 -0.011807 11.068774 0.000001 -25.047929 -0.000003 58.489964 0.000002 19.479152 -1.965599 9.397011 -15.995274 -34.863623 0.013919 -6.235500 -0.000001 29.466805 0.000001 32.071425 -0.000000 -25.551250 11.696664 -23.805849 0.263062 -49.425023 9.942441 -0.000000 38.343149 0.000000 7.907715 -1.784541 0.247829 -0.667233 14.023801 -3.327887 1.240688 0.258515 -8.959378 -0.000000 57.606895 0.000001 -7.336762 -34.228245 -4.142336 4.050104 -22.086222 12.895116
7.535280 71.381485 162.651596 0.960695 -2.134060 -3.987884 0.000000 -0.000000 10.812695 -6.716248 0.000000 0.000000 0.000000 20.404031 -0.000000 16.006116 14.172347 -0.011778 11.060603 0.000000 -25.545415 0.000001 58.884538 -0.000000 18.465548 -1.513038 9.318496 -15.995446 -34.288774 0.013820 -5.683551 0.000001 29.444301 0.000001 31.997874 -0.000001 -26.513414 10.610230 -23.186461 -1.359390 -48.459367 9.516140 0.000000 42.841507 -0.000000 8.958321 -0.183799 0.028974 -1.312786 7.383174 -3.040568 -1.644408 -2.970015 -8.461349 -0.000001 69.816087 0.000001 -4.105373 -20.144205 -1.415961 3.560946 -44.567859 12.268034
8.375664 71.991241 166.440903 1.454496 -3.071630 -3.182844 0.000000 0.000000 10.164223 -6.566072 -0.000000 0.000000 -0.000000 21.528314 -0.000000 16.005726 12.322254 -0.011689 10.891814 -0.000002 -25.631021 -0.000001 59.225431 0.000001 17.721972 -2.124116 8.298445 -15.995599 -33.756843 0.013735 -6.048853 -0.000000 30.432711 0.000001 30.352700 -0.000000 -27.450688 11.790348 -26.550014 -2.791239 -45.418314 8.758561 -0.000000 46.140285 0.000000 9.778271 -2.302257 0.396656 -2.052933 4.108947 -3.086210 -5.712939 -8.374077 -8.816464 0.000002 81.249497 -0.000002 -1.041443 -5.531275 -0.100395 6.258380 -63.773413 16.813434
9.128234 72.230621 169.680206 2.073204 -3.744075 -2.235402 0.000000 0.000000 9.492050 -6.352538 -0.000000 0.000000 -0.000000 22.665291 0.000000 16.005374 10.628248 -0.011619 11.250473 -0.000001 -25.861697 0.000002 58.872767 -0.000001 16.983301 -2.295775 7.971725 -15.995807 -33.029612 0.013620 -6.442446 -0.000001 30.311659 -0.000000 30.534134 0.000000 -28.616647 12.512913 -27.044895 -4.739573 -43.204682 7.395651 -0.000000 49.473121 0.000000 10.896092 -5.044267 0.969669 -2.955852 2.046630 -2.846372 -7.813064 -13.125122 -9.392960 -0.000002 89.265441 0.000002 -1.003365 -5.877008 -0.102748 7.852942 -65.774169 17.987686
9.744067 72.445694 172.930435 2.266203 -4.657462 -1.385240 0.000000 -0.000000 8.697991 -5.756832 -0.000000 -0.000000 0.000000 23.714222 0.000000 16.005034 8.968739 -0.011562 11.609736 0.000000 -26.046427 0.000001 57.776939 -0.000001 16.225289 -1.862670 7.784225 -15.996252 -31.432791 0.013385 -6.764128 -0.000001 29.827668 0.000001 30.880087 -0.000001 -28.975029 12.822272 -26.522916 -6.131557 -40.566447 6.412200 0.000000 52.403760 -0.000000 11.564950 -8.578582 1.748367 -3.167285 1.035194 -2.839601 -8.729499 -17.877538 -10.128080 179.999997 85.698978 -179.999997 -1.644276 -10.122650 -0.289068 6.512520 -60.870103 15.718921
10.266895 72.663681 176.466156 2.184736 -5.354421 -0.784981 0.000000 -0.000000 7.842766 -4.958237 -0.000000 0.000000 -0.000000 24.211995 -0.000000 16.004716 7.407359 -0.011516 12.107316 0.000001 -26.658779 0.000001 56.801582 -0.000001 16.353240 -1.630336 7.638885 -15.996901 -28.999103 0.013057 -7.031328 -0.000000 29.300109 -0.000000 31.157797 -0.000002 -29.943430 12.498601 -27.034646 -7.095611 -37.770344 5.800836 0.000000 54.473370 -0.000001 12.566260 -12.164253 2.689212 -3.524663 0.576501 -2.929076 -8.732813 -22.617738 -10.985388 179.999999 83.776965 -179.999999 -2.603504 -13.911424 -0.626345 4.581819 -53.659562 12.940914
